<svg id="Layer_1" data-name="Layer 1" xmlns="http://www.w3.org/2000/svg" viewBox="0 0 173.829 31.256">
  <defs>
    <style>
      .cls-1 {
        fill: #1a1818;
      }

      .cls-2 {
        fill: #2d2c2d;
      }

      .cls-3 {
        fill: #de8415;
      }

      .cls-4 {
        fill: #e8b208;
      }
    </style>
  </defs>
  <title>logo</title>
  <g>
    <path class="cls-1" d="M6.515,14.85a3.492,3.492,0,0,1-1.824-1.824,3.464,3.464,0,0,1,0-2.691A3.493,3.493,0,0,1,6.515,8.511,3.316,3.316,0,0,1,7.86,8.24h15.7a1.242,1.242,0,1,1,0,2.484H7.808A.985.985,0,0,0,7.123,11a.888.888,0,0,0-.3.686.9.9,0,0,0,.3.673.96.96,0,0,0,.685.284H22.115a3.415,3.415,0,0,1,1.358.272,3.42,3.42,0,0,1,1.837,1.837,3.411,3.411,0,0,1,.271,1.358,3.317,3.317,0,0,1-.271,1.345,3.508,3.508,0,0,1-.737,1.086,3.292,3.292,0,0,1-1.1.724,3.563,3.563,0,0,1-1.358.259H6.437a1.242,1.242,0,1,1,0-2.484H22.218a.941.941,0,0,0,.672-.271.878.878,0,0,0,.285-.659.952.952,0,0,0-.285-.7.92.92,0,0,0-.672-.284H7.86A3.324,3.324,0,0,1,6.515,14.85Z" transform="translate(-4.419 -2.577)"/>
    <path class="cls-1" d="M33.5,10.724a2.891,2.891,0,0,0-1.462.323,2.7,2.7,0,0,0-.88.789,2.761,2.761,0,0,0-.44,1.022,4.543,4.543,0,0,0,0,2.044,2.758,2.758,0,0,0,.44,1.022,2.694,2.694,0,0,0,.88.789,2.887,2.887,0,0,0,1.462.323H47.752a1.242,1.242,0,1,1,0,2.484H32.67A3.485,3.485,0,0,1,30.781,19a4.932,4.932,0,0,1-1.41-1.332,6.3,6.3,0,0,1-.893-1.824,6.67,6.67,0,0,1-.311-1.966,6.371,6.371,0,0,1,.324-1.979,6.029,6.029,0,0,1,.944-1.811,5.156,5.156,0,0,1,1.5-1.333,3.853,3.853,0,0,1,1.992-.517H47.752a1.242,1.242,0,1,1,0,2.484ZM47.545,13a1.242,1.242,0,0,1-.88,2.121H33.782a1.242,1.242,0,1,1,0-2.484H46.666A1.2,1.2,0,0,1,47.545,13Z" transform="translate(-4.419 -2.577)"/>
    <path class="cls-1" d="M72.666,13.88a6.406,6.406,0,0,1-.311,1.94,6.181,6.181,0,0,1-.892,1.785,5.182,5.182,0,0,1-1.41,1.332,3.779,3.779,0,0,1-1.889.582H52.823a1.236,1.236,0,0,1-1.241-1.242v-8.8A1.236,1.236,0,0,1,52.823,8.24H67.905a3.855,3.855,0,0,1,1.992.517,5.166,5.166,0,0,1,1.5,1.333,6.052,6.052,0,0,1,.944,1.811A6.385,6.385,0,0,1,72.666,13.88Zm-18.6-3.156v6.312h13.3a2.9,2.9,0,0,0,1.449-.323,2.669,2.669,0,0,0,.892-.789,2.765,2.765,0,0,0,.44-1.022,4.539,4.539,0,0,0,0-2.044,2.768,2.768,0,0,0-.44-1.022,2.677,2.677,0,0,0-.892-.789,2.908,2.908,0,0,0-1.449-.323Z" transform="translate(-4.419 -2.577)"/>
    <path class="cls-1" d="M80.582,10.724a2.892,2.892,0,0,0-1.462.323,2.7,2.7,0,0,0-.88.789,2.773,2.773,0,0,0-.44,1.022,4.539,4.539,0,0,0,0,2.044,2.77,2.77,0,0,0,.44,1.022,2.693,2.693,0,0,0,.88.789,2.888,2.888,0,0,0,1.462.323H94.836a1.242,1.242,0,1,1,0,2.484H79.754A3.486,3.486,0,0,1,77.865,19a4.932,4.932,0,0,1-1.41-1.332,6.3,6.3,0,0,1-.892-1.824,6.653,6.653,0,0,1-.311-1.966,6.37,6.37,0,0,1,.323-1.979,6.038,6.038,0,0,1,.944-1.811,5.156,5.156,0,0,1,1.5-1.333,3.854,3.854,0,0,1,1.992-.517H94.836a1.242,1.242,0,1,1,0,2.484ZM94.629,13a1.242,1.242,0,0,1-.88,2.121H80.866a1.242,1.242,0,1,1,0-2.484H93.75A1.2,1.2,0,0,1,94.629,13Z" transform="translate(-4.419 -2.577)"/>
    <path class="cls-1" d="M100.761,14.85a3.492,3.492,0,0,1-1.824-1.824,3.469,3.469,0,0,1,0-2.691,3.493,3.493,0,0,1,1.824-1.824,3.318,3.318,0,0,1,1.346-.271h15.7a1.242,1.242,0,1,1,0,2.484H102.055a.986.986,0,0,0-.686.271.888.888,0,0,0-.3.686.9.9,0,0,0,.3.673.962.962,0,0,0,.686.284h14.306a3.413,3.413,0,0,1,1.358.272,3.42,3.42,0,0,1,1.837,1.837,3.412,3.412,0,0,1,.271,1.358,3.319,3.319,0,0,1-.271,1.345,3.508,3.508,0,0,1-.737,1.086,3.293,3.293,0,0,1-1.1.724,3.56,3.56,0,0,1-1.358.259H100.683a1.242,1.242,0,1,1,0-2.484h15.781a.943.943,0,0,0,.673-.271.879.879,0,0,0,.284-.659.953.953,0,0,0-.284-.7.922.922,0,0,0-.673-.284H102.106A3.326,3.326,0,0,1,100.761,14.85Z" transform="translate(-4.419 -2.577)"/>
    <path class="cls-1" d="M143.5,13.88a6.406,6.406,0,0,1-.311,1.94,6.184,6.184,0,0,1-.892,1.785,5.183,5.183,0,0,1-1.41,1.332,3.779,3.779,0,0,1-1.889.582H123.656a1.236,1.236,0,0,1-1.242-1.242v-8.8a1.236,1.236,0,0,1,1.242-1.242h15.083a3.856,3.856,0,0,1,1.992.517,5.166,5.166,0,0,1,1.5,1.333,6.05,6.05,0,0,1,.944,1.811A6.385,6.385,0,0,1,143.5,13.88Zm-18.6-3.156v6.312h13.3a2.9,2.9,0,0,0,1.449-.323,2.669,2.669,0,0,0,.892-.789,2.763,2.763,0,0,0,.44-1.022,4.539,4.539,0,0,0,0-2.044,2.766,2.766,0,0,0-.44-1.022,2.676,2.676,0,0,0-.892-.789,2.908,2.908,0,0,0-1.449-.323Z" transform="translate(-4.419 -2.577)"/>
    <path class="cls-2" d="M36.043,29.064l.967-.088a2.118,2.118,0,0,0,.318.956,1.735,1.735,0,0,0,.779.6,2.971,2.971,0,0,0,1.193.229,2.859,2.859,0,0,0,1.033-.173A1.449,1.449,0,0,0,41,30.113a1.1,1.1,0,0,0,.222-.665,1,1,0,0,0-.214-.635,1.582,1.582,0,0,0-.7-.458,12.425,12.425,0,0,0-1.377-.38,6.915,6.915,0,0,1-1.5-.484,2.083,2.083,0,0,1-.827-.719,1.768,1.768,0,0,1-.273-.964,1.976,1.976,0,0,1,.332-1.1,2.07,2.07,0,0,1,.971-.775,3.669,3.669,0,0,1,1.421-.266,3.849,3.849,0,0,1,1.521.281,2.212,2.212,0,0,1,1.011.819,2.358,2.358,0,0,1,.384,1.218L41,26.059a1.592,1.592,0,0,0-.539-1.108,2.087,2.087,0,0,0-1.351-.376,2.17,2.17,0,0,0-1.355.34,1.019,1.019,0,0,0-.424.819.872.872,0,0,0,.3.687,4.019,4.019,0,0,0,1.543.558,10.764,10.764,0,0,1,1.713.491,2.322,2.322,0,0,1,1,.79,1.947,1.947,0,0,1,.321,1.108,2.128,2.128,0,0,1-.351,1.163,2.289,2.289,0,0,1-1.015.853,3.573,3.573,0,0,1-1.5.3,4.461,4.461,0,0,1-1.761-.307,2.449,2.449,0,0,1-1.115-.923A2.627,2.627,0,0,1,36.043,29.064Z" transform="translate(-4.419 -2.577)"/>
    <path class="cls-2" d="M47.331,29.743l.982.126a2.377,2.377,0,0,1-.86,1.333,2.919,2.919,0,0,1-3.559-.281,2.969,2.969,0,0,1-.72-2.13,3.112,3.112,0,0,1,.727-2.2,2.468,2.468,0,0,1,1.894-.783,2.4,2.4,0,0,1,1.838.768,3.04,3.04,0,0,1,.716,2.156q0,.088-.008.258H44.157a2.149,2.149,0,0,0,.521,1.414,1.559,1.559,0,0,0,1.178.491,1.46,1.46,0,0,0,.893-.273A1.805,1.805,0,0,0,47.331,29.743Zm-3.123-1.536h3.138a1.924,1.924,0,0,0-.362-1.063A1.464,1.464,0,0,0,45.8,26.59a1.514,1.514,0,0,0-1.1.439A1.731,1.731,0,0,0,44.208,28.207Z" transform="translate(-4.419 -2.577)"/>
    <path class="cls-2" d="M49.339,32.017l.923.141a.87.87,0,0,0,.325.62,1.579,1.579,0,0,0,.967.266,1.694,1.694,0,0,0,1.023-.266,1.3,1.3,0,0,0,.483-.738,6.122,6.122,0,0,0,.067-1.226,1.945,1.945,0,0,1-1.551.738,2.123,2.123,0,0,1-1.794-.834,3.207,3.207,0,0,1-.635-2,3.717,3.717,0,0,1,.292-1.484,2.349,2.349,0,0,1,.845-1.052,2.271,2.271,0,0,1,1.3-.373,2.021,2.021,0,0,1,1.639.8v-.672h.871v4.851a4.634,4.634,0,0,1-.266,1.857,1.945,1.945,0,0,1-.846.868,2.926,2.926,0,0,1-1.421.318,2.683,2.683,0,0,1-1.624-.454A1.529,1.529,0,0,1,49.339,32.017Zm.79-3.374a2.43,2.43,0,0,0,.439,1.613,1.392,1.392,0,0,0,1.1.506,1.407,1.407,0,0,0,1.1-.5,2.362,2.362,0,0,0,.443-1.588,2.3,2.3,0,0,0-.458-1.55,1.412,1.412,0,0,0-1.1-.524,1.369,1.369,0,0,0-1.078.517A2.29,2.29,0,0,0,50.129,28.643Z" transform="translate(-4.419 -2.577)"/>
    <path class="cls-2" d="M59.218,31.552v-.827a2.055,2.055,0,0,1-1.779.953,2.293,2.293,0,0,1-.93-.188,1.532,1.532,0,0,1-.639-.476,1.741,1.741,0,0,1-.291-.709,4.741,4.741,0,0,1-.059-.886V25.941h.953v3.108a5.406,5.406,0,0,0,.059,1,.99.99,0,0,0,.376.591,1.165,1.165,0,0,0,.716.214,1.578,1.578,0,0,0,.8-.218,1.2,1.2,0,0,0,.532-.6,3.025,3.025,0,0,0,.155-1.1v-3h.952v5.611Z" transform="translate(-4.419 -2.577)"/>
    <path class="cls-2" d="M61.551,31.552V25.941h.856v.849a2.394,2.394,0,0,1,.609-.79,1.048,1.048,0,0,1,.609-.192,1.831,1.831,0,0,1,.974.31L64.275,27a1.361,1.361,0,0,0-.7-.207.91.91,0,0,0-.557.184.99.99,0,0,0-.351.524,3.574,3.574,0,0,0-.162,1.108v2.938Z" transform="translate(-4.419 -2.577)"/>
    <path class="cls-2" d="M65.169,24.9V23.8h.952v1.1Zm0,6.652V25.941h.952v5.611Z" transform="translate(-4.419 -2.577)"/>
    <path class="cls-2" d="M71.216,31.552v-.709a1.746,1.746,0,0,1-1.573.834,2.2,2.2,0,0,1-1.233-.369,2.435,2.435,0,0,1-.871-1.033,3.558,3.558,0,0,1-.31-1.521,4.009,4.009,0,0,1,.28-1.528,2.215,2.215,0,0,1,.842-1.052,2.25,2.25,0,0,1,1.255-.366,1.876,1.876,0,0,1,.9.214,1.825,1.825,0,0,1,.642.561V23.8H72.1v7.752Zm-3-2.8a2.43,2.43,0,0,0,.454,1.61,1.373,1.373,0,0,0,1.074.532,1.342,1.342,0,0,0,1.056-.509,2.356,2.356,0,0,0,.436-1.558,2.642,2.642,0,0,0-.443-1.69,1.363,1.363,0,0,0-1.093-.539,1.316,1.316,0,0,0-1.059.517A2.568,2.568,0,0,0,68.211,28.754Z" transform="translate(-4.419 -2.577)"/>
    <path class="cls-2" d="M77.262,30.858a3.574,3.574,0,0,1-1.019.635,2.942,2.942,0,0,1-1.048.184,2.047,2.047,0,0,1-1.421-.451,1.483,1.483,0,0,1-.5-1.151,1.547,1.547,0,0,1,.188-.757,1.568,1.568,0,0,1,.491-.55,2.239,2.239,0,0,1,.686-.31,6.615,6.615,0,0,1,.842-.14,8.71,8.71,0,0,0,1.7-.332q.007-.192.007-.244a1.04,1.04,0,0,0-.273-.82,1.569,1.569,0,0,0-1.078-.325,1.683,1.683,0,0,0-.993.236,1.45,1.45,0,0,0-.476.834l-.93-.126a2.3,2.3,0,0,1,.417-.967,1.838,1.838,0,0,1,.842-.569,3.734,3.734,0,0,1,1.273-.2,3.355,3.355,0,0,1,1.171.17,1.559,1.559,0,0,1,.661.428,1.47,1.47,0,0,1,.3.65,5.776,5.776,0,0,1,.044.878V29.2a13.051,13.051,0,0,0,.063,1.68,2.221,2.221,0,0,0,.24.676h-.989A2.048,2.048,0,0,1,77.262,30.858Zm-.081-2.126a6.831,6.831,0,0,1-1.55.362,3.834,3.834,0,0,0-.834.192.807.807,0,0,0-.509.76.8.8,0,0,0,.292.631,1.247,1.247,0,0,0,.845.255,1.957,1.957,0,0,0,.974-.24,1.472,1.472,0,0,0,.628-.653,2.286,2.286,0,0,0,.155-.952Z" transform="translate(-4.419 -2.577)"/>
    <path class="cls-2" d="M83.265,31.552v-.709a1.746,1.746,0,0,1-1.573.834,2.2,2.2,0,0,1-1.233-.369,2.435,2.435,0,0,1-.871-1.033,3.557,3.557,0,0,1-.31-1.521,4.011,4.011,0,0,1,.28-1.528,2.216,2.216,0,0,1,.842-1.052,2.25,2.25,0,0,1,1.255-.366,1.875,1.875,0,0,1,.9.214,1.826,1.826,0,0,1,.642.561V23.8h.952v7.752Zm-3-2.8a2.43,2.43,0,0,0,.454,1.61,1.373,1.373,0,0,0,1.074.532,1.342,1.342,0,0,0,1.056-.509,2.356,2.356,0,0,0,.436-1.558,2.642,2.642,0,0,0-.443-1.69,1.363,1.363,0,0,0-1.093-.539,1.317,1.317,0,0,0-1.059.517A2.568,2.568,0,0,0,80.26,28.754Z" transform="translate(-4.419 -2.577)"/>
    <path class="cls-3" d="M95.58,30.607l-.893,1.144a5.025,5.025,0,0,1-1.27-.886,3.276,3.276,0,0,1-1,.624,3.512,3.512,0,0,1-1.259.2,2.768,2.768,0,0,1-2.178-.819,2.092,2.092,0,0,1-.568-1.447,2.174,2.174,0,0,1,.447-1.34,3.64,3.64,0,0,1,1.325-1.03,4.414,4.414,0,0,1-.594-.9,1.871,1.871,0,0,1-.2-.808,1.524,1.524,0,0,1,.565-1.193,2.373,2.373,0,0,1,1.606-.491,2.249,2.249,0,0,1,1.569.513,1.636,1.636,0,0,1,.564,1.259,1.589,1.589,0,0,1-.28.889,3.763,3.763,0,0,1-1.13.956l1.078,1.425a3.5,3.5,0,0,0,.325-.886l1.343.31a8.3,8.3,0,0,1-.347,1.041,2.729,2.729,0,0,1-.318.553,7.048,7.048,0,0,0,.642.509A4.425,4.425,0,0,0,95.58,30.607Zm-4.622-2.6a1.99,1.99,0,0,0-.768.62,1.291,1.291,0,0,0-.251.746,1.049,1.049,0,0,0,.314.786,1.147,1.147,0,0,0,.838.307,1.666,1.666,0,0,0,.675-.14,3.054,3.054,0,0,0,.705-.458Zm.583-1.616.4-.3a.935.935,0,0,0,.443-.686.645.645,0,0,0-.214-.484.8.8,0,0,0-.576-.2.82.82,0,0,0-.558.177.534.534,0,0,0-.2.413,1.117,1.117,0,0,0,.34.664Z" transform="translate(-4.419 -2.577)"/>
    <path class="cls-2" d="M99.6,31.552V23.8h2.673a6.541,6.541,0,0,1,1.38.111,2.633,2.633,0,0,1,1.137.561,3.14,3.14,0,0,1,.916,1.322,5.2,5.2,0,0,1,.3,1.838A5.43,5.43,0,0,1,105.8,29.2a3.827,3.827,0,0,1-.528,1.13,2.749,2.749,0,0,1-.705.7,2.9,2.9,0,0,1-.926.388,5.252,5.252,0,0,1-1.244.133Zm1.026-.916h1.654a3.982,3.982,0,0,0,1.2-.144,1.733,1.733,0,0,0,.694-.4,2.384,2.384,0,0,0,.572-.978,4.819,4.819,0,0,0,.2-1.5,3.6,3.6,0,0,0-.4-1.864,2,2,0,0,0-.975-.875,3.906,3.906,0,0,0-1.322-.163h-1.632Z" transform="translate(-4.419 -2.577)"/>
    <path class="cls-2" d="M111.136,29.743l.982.126a2.377,2.377,0,0,1-.86,1.333,2.919,2.919,0,0,1-3.559-.281,2.969,2.969,0,0,1-.72-2.13,3.112,3.112,0,0,1,.727-2.2,2.468,2.468,0,0,1,1.894-.783,2.4,2.4,0,0,1,1.838.768,3.04,3.04,0,0,1,.716,2.156q0,.088-.007.258h-4.186a2.149,2.149,0,0,0,.521,1.414,1.559,1.559,0,0,0,1.178.491,1.46,1.46,0,0,0,.893-.273A1.8,1.8,0,0,0,111.136,29.743Zm-3.123-1.536h3.138a1.924,1.924,0,0,0-.362-1.063,1.464,1.464,0,0,0-1.181-.554,1.514,1.514,0,0,0-1.1.439A1.731,1.731,0,0,0,108.013,28.207Z" transform="translate(-4.419 -2.577)"/>
    <path class="cls-2" d="M112.938,29.876l.945-.148a1.289,1.289,0,0,0,.436.868,1.545,1.545,0,0,0,1.012.3,1.5,1.5,0,0,0,.974-.266.8.8,0,0,0,.317-.628.591.591,0,0,0-.281-.51,4.077,4.077,0,0,0-.974-.317,9.1,9.1,0,0,1-1.447-.458,1.375,1.375,0,0,1-.613-.535,1.428,1.428,0,0,1-.207-.749,1.469,1.469,0,0,1,.17-.7,1.546,1.546,0,0,1,.465-.536,2,2,0,0,1,.606-.277,2.9,2.9,0,0,1,.827-.114,3.21,3.21,0,0,1,1.155.192,1.605,1.605,0,0,1,.738.517,1.986,1.986,0,0,1,.329.871l-.93.126a1.035,1.035,0,0,0-.369-.679,1.334,1.334,0,0,0-.856-.244,1.556,1.556,0,0,0-.938.218.631.631,0,0,0-.281.506.528.528,0,0,0,.118.34.9.9,0,0,0,.362.251q.147.052.842.244a11.064,11.064,0,0,1,1.41.439,1.449,1.449,0,0,1,.628.5,1.393,1.393,0,0,1,.229.816,1.584,1.584,0,0,1-.281.893,1.81,1.81,0,0,1-.8.65,2.916,2.916,0,0,1-1.185.229,2.629,2.629,0,0,1-1.665-.454A2.126,2.126,0,0,1,112.938,29.876Z" transform="translate(-4.419 -2.577)"/>
    <path class="cls-2" d="M122.4,30.858a3.574,3.574,0,0,1-1.019.635,2.942,2.942,0,0,1-1.048.184,2.047,2.047,0,0,1-1.421-.451,1.483,1.483,0,0,1-.5-1.151,1.547,1.547,0,0,1,.188-.757,1.568,1.568,0,0,1,.491-.55,2.239,2.239,0,0,1,.686-.31,6.62,6.62,0,0,1,.842-.14,8.71,8.71,0,0,0,1.7-.332q.007-.192.008-.244a1.04,1.04,0,0,0-.273-.82,1.569,1.569,0,0,0-1.078-.325,1.683,1.683,0,0,0-.993.236,1.45,1.45,0,0,0-.476.834l-.93-.126a2.3,2.3,0,0,1,.417-.967,1.838,1.838,0,0,1,.842-.569,3.734,3.734,0,0,1,1.273-.2,3.355,3.355,0,0,1,1.171.17,1.559,1.559,0,0,1,.661.428,1.47,1.47,0,0,1,.3.65,5.776,5.776,0,0,1,.044.878V29.2a13.051,13.051,0,0,0,.063,1.68,2.221,2.221,0,0,0,.24.676h-.989A2.048,2.048,0,0,1,122.4,30.858Zm-.081-2.126a6.831,6.831,0,0,1-1.55.362,3.834,3.834,0,0,0-.834.192.807.807,0,0,0-.51.76.8.8,0,0,0,.292.631,1.247,1.247,0,0,0,.845.255,1.957,1.957,0,0,0,.974-.24,1.472,1.472,0,0,0,.628-.653,2.286,2.286,0,0,0,.155-.952Z" transform="translate(-4.419 -2.577)"/>
    <path class="cls-2" d="M124.743,31.552V25.941h.856v.849a2.394,2.394,0,0,1,.609-.79,1.048,1.048,0,0,1,.609-.192,1.83,1.83,0,0,1,.974.31l-.324.886a1.361,1.361,0,0,0-.7-.207.91.91,0,0,0-.558.184.991.991,0,0,0-.351.524,3.574,3.574,0,0,0-.162,1.108v2.938Z" transform="translate(-4.419 -2.577)"/>
    <path class="cls-2" d="M128.346,31.552V25.941h.856v.849a2.392,2.392,0,0,1,.609-.79,1.048,1.048,0,0,1,.609-.192,1.83,1.83,0,0,1,.974.31L131.07,27a1.36,1.36,0,0,0-.7-.207.91.91,0,0,0-.558.184.99.99,0,0,0-.351.524,3.574,3.574,0,0,0-.163,1.108v2.938Z" transform="translate(-4.419 -2.577)"/>
    <path class="cls-2" d="M131.609,28.746a2.9,2.9,0,0,1,.864-2.311,2.6,2.6,0,0,1,1.765-.628,2.518,2.518,0,0,1,1.894.761,2.893,2.893,0,0,1,.735,2.1,3.716,3.716,0,0,1-.325,1.705,2.3,2.3,0,0,1-.945.964,2.758,2.758,0,0,1-1.358.343,2.518,2.518,0,0,1-1.9-.757A3.017,3.017,0,0,1,131.609,28.746Zm.974,0a2.377,2.377,0,0,0,.472,1.613,1.567,1.567,0,0,0,2.363,0,2.432,2.432,0,0,0,.473-1.639,2.315,2.315,0,0,0-.476-1.583,1.567,1.567,0,0,0-2.359,0A2.378,2.378,0,0,0,132.584,28.746Z" transform="translate(-4.419 -2.577)"/>
    <path class="cls-2" d="M137.966,31.552V23.8h.953v7.752Z" transform="translate(-4.419 -2.577)"/>
    <path class="cls-2" d="M142.041,28.746a2.9,2.9,0,0,1,.864-2.311,2.6,2.6,0,0,1,1.764-.628,2.518,2.518,0,0,1,1.894.761,2.893,2.893,0,0,1,.734,2.1,3.716,3.716,0,0,1-.325,1.705,2.3,2.3,0,0,1-.945.964,2.759,2.759,0,0,1-1.358.343,2.518,2.518,0,0,1-1.9-.757A3.016,3.016,0,0,1,142.041,28.746Zm.975,0a2.377,2.377,0,0,0,.472,1.613,1.567,1.567,0,0,0,2.363,0,2.432,2.432,0,0,0,.472-1.639,2.315,2.315,0,0,0-.476-1.583,1.567,1.567,0,0,0-2.359,0A2.378,2.378,0,0,0,143.015,28.746Z" transform="translate(-4.419 -2.577)"/>
    <path class="cls-2" d="M155.065,31.552v-.709a1.746,1.746,0,0,1-1.573.834,2.2,2.2,0,0,1-1.233-.369,2.434,2.434,0,0,1-.871-1.033,3.557,3.557,0,0,1-.31-1.521,4.011,4.011,0,0,1,.28-1.528,2.216,2.216,0,0,1,.842-1.052,2.25,2.25,0,0,1,1.255-.366,1.875,1.875,0,0,1,.9.214,1.826,1.826,0,0,1,.643.561V23.8h.952v7.752Zm-3-2.8a2.43,2.43,0,0,0,.454,1.61,1.373,1.373,0,0,0,1.074.532,1.342,1.342,0,0,0,1.056-.509,2.356,2.356,0,0,0,.436-1.558,2.642,2.642,0,0,0-.443-1.69,1.363,1.363,0,0,0-1.093-.539,1.317,1.317,0,0,0-1.06.517A2.568,2.568,0,0,0,152.06,28.754Z" transform="translate(-4.419 -2.577)"/>
    <path class="cls-2" d="M157.45,24.9V23.8h.952v1.1Zm0,6.652V25.941h.952v5.611Z" transform="translate(-4.419 -2.577)"/>
    <path class="cls-2" d="M159.679,32.017l.923.141a.87.87,0,0,0,.325.62,1.579,1.579,0,0,0,.967.266,1.694,1.694,0,0,0,1.023-.266,1.3,1.3,0,0,0,.483-.738,6.13,6.13,0,0,0,.067-1.226,1.945,1.945,0,0,1-1.551.738,2.122,2.122,0,0,1-1.794-.834,3.207,3.207,0,0,1-.635-2,3.717,3.717,0,0,1,.292-1.484,2.349,2.349,0,0,1,.845-1.052,2.271,2.271,0,0,1,1.3-.373,2.021,2.021,0,0,1,1.639.8v-.672h.871v4.851a4.634,4.634,0,0,1-.266,1.857,1.945,1.945,0,0,1-.846.868,2.926,2.926,0,0,1-1.421.318,2.683,2.683,0,0,1-1.625-.454A1.529,1.529,0,0,1,159.679,32.017Zm.79-3.374a2.43,2.43,0,0,0,.439,1.613,1.392,1.392,0,0,0,1.1.506,1.407,1.407,0,0,0,1.1-.5,2.362,2.362,0,0,0,.443-1.588,2.3,2.3,0,0,0-.458-1.55,1.412,1.412,0,0,0-1.1-.524,1.369,1.369,0,0,0-1.078.517A2.29,2.29,0,0,0,160.469,28.643Z" transform="translate(-4.419 -2.577)"/>
    <path class="cls-2" d="M165.881,24.9V23.8h.952v1.1Zm0,6.652V25.941h.952v5.611Z" transform="translate(-4.419 -2.577)"/>
    <path class="cls-2" d="M170.363,30.7l.14.841a3.722,3.722,0,0,1-.723.081,1.63,1.63,0,0,1-.8-.163.918.918,0,0,1-.4-.432,3.382,3.382,0,0,1-.118-1.126V26.679h-.694v-.738h.694v-1.4l.945-.569v1.964h.96v.738h-.96v3.278a1.624,1.624,0,0,0,.052.528.412.412,0,0,0,.166.184.615.615,0,0,0,.321.07A3.126,3.126,0,0,0,170.363,30.7Z" transform="translate(-4.419 -2.577)"/>
    <path class="cls-2" d="M174.955,30.858a3.575,3.575,0,0,1-1.019.635,2.942,2.942,0,0,1-1.048.184,2.047,2.047,0,0,1-1.421-.451,1.483,1.483,0,0,1-.5-1.151,1.547,1.547,0,0,1,.188-.757,1.568,1.568,0,0,1,.491-.55,2.239,2.239,0,0,1,.686-.31,6.62,6.62,0,0,1,.842-.14,8.71,8.71,0,0,0,1.7-.332q.007-.192.007-.244a1.04,1.04,0,0,0-.273-.82,1.569,1.569,0,0,0-1.078-.325,1.683,1.683,0,0,0-.993.236,1.45,1.45,0,0,0-.476.834l-.93-.126a2.3,2.3,0,0,1,.417-.967,1.838,1.838,0,0,1,.842-.569,3.734,3.734,0,0,1,1.273-.2,3.356,3.356,0,0,1,1.171.17,1.559,1.559,0,0,1,.661.428,1.469,1.469,0,0,1,.3.65,5.775,5.775,0,0,1,.044.878V29.2a13.051,13.051,0,0,0,.063,1.68,2.221,2.221,0,0,0,.24.676h-.989A2.048,2.048,0,0,1,174.955,30.858Zm-.081-2.126a6.831,6.831,0,0,1-1.55.362,3.833,3.833,0,0,0-.834.192.807.807,0,0,0-.51.76.8.8,0,0,0,.292.631,1.247,1.247,0,0,0,.845.255,1.957,1.957,0,0,0,.974-.24,1.472,1.472,0,0,0,.628-.653,2.286,2.286,0,0,0,.155-.952Z" transform="translate(-4.419 -2.577)"/>
    <path class="cls-2" d="M177.3,31.552V23.8h.952v7.752Z" transform="translate(-4.419 -2.577)"/>
    <g>
      <path class="cls-1" d="M164.711,10.724h.958a1.242,1.242,0,1,0,0-2.484h-.958Z" transform="translate(-4.419 -2.577)"/>
      <path class="cls-1" d="M165.669,17.036H151.415a2.889,2.889,0,0,1-1.462-.323,2.693,2.693,0,0,1-.88-.789,2.77,2.77,0,0,1-.44-1.022,4.539,4.539,0,0,1,0-2.044,2.773,2.773,0,0,1,.44-1.022,2.7,2.7,0,0,1,.88-.789,2.893,2.893,0,0,1,1.462-.323h10.7V8.24H150.846a3.853,3.853,0,0,0-1.992.517,5.154,5.154,0,0,0-1.5,1.333,6.039,6.039,0,0,0-.944,1.811,6.373,6.373,0,0,0-.323,1.979,6.653,6.653,0,0,0,.311,1.966,6.3,6.3,0,0,0,.892,1.824A4.933,4.933,0,0,0,148.7,19a3.486,3.486,0,0,0,1.889.517h15.082a1.242,1.242,0,1,0,0-2.484Z" transform="translate(-4.419 -2.577)"/>
      <path class="cls-1" d="M150.82,13a1.242,1.242,0,0,0,.88,2.121h12.884a1.242,1.242,0,1,0,0-2.484H151.7A1.2,1.2,0,0,0,150.82,13Z" transform="translate(-4.419 -2.577)"/>
    </g>
    <rect class="cls-4" x="160.009" width="2.602" height="2.602"/>
    <rect class="cls-3" x="162.621" y="2.492" width="2.602" height="2.602"/>
    <path class="cls-2" d="M140.23,31.552V23.8h.952v7.752Z" transform="translate(-4.419 -2.577)"/>
  </g>
</svg>
