<!-- Generator: Adobe Illustrator 19.0.1, SVG Export Plug-In  -->
<svg version="1.1"
	 xmlns="http://www.w3.org/2000/svg" xmlns:xlink="http://www.w3.org/1999/xlink" xmlns:a="http://ns.adobe.com/AdobeSVGViewerExtensions/3.0/"
	 x="0px" y="0px" width="57.408px" height="56.95px" viewBox="0 0 57.408 56.95" style="enable-background:new 0 0 57.408 56.95;"
	 xml:space="preserve">
<style type="text/css">
	.st0{fill:#231F20;}
</style>
<defs>
</defs>
<path class="st0" d="M56.602,8.802l-32.289-8.61c-1.527-0.407-3.034-0.158-4.133,0.685c-1.072,0.823-1.661,2.103-1.661,3.604v4.322
	h-3.704c-3.063,0-5.556,2.492-5.556,5.556V27.32H5.556C2.492,27.32,0,29.813,0,32.876c0,3.063,2.492,5.556,5.556,5.556h3.704v12.963
	c0,3.063,2.492,5.556,5.556,5.556h42.593V8.802H56.602z M20.371,4.48c0-0.913,0.333-1.671,0.938-2.135
	c0.647-0.497,1.546-0.627,2.527-0.365l25.583,6.822H20.371V4.48z M55.556,55.099H14.815c-2.042,0-3.704-1.661-3.704-3.704V36.58
	H5.556c-2.043,0-3.704-1.661-3.704-3.704c0-2.042,1.661-3.704,3.704-3.704h5.556V14.357c0-2.043,1.661-3.703,3.704-3.703h40.741
	V55.099z"/>
</svg>