<!-- Generator: Adobe Illustrator 19.0.1, SVG Export Plug-In  -->
<svg version="1.1"
	 xmlns="http://www.w3.org/2000/svg" xmlns:xlink="http://www.w3.org/1999/xlink" xmlns:a="http://ns.adobe.com/AdobeSVGViewerExtensions/3.0/"
	 x="0px" y="0px" width="38.889px" height="57.408px" viewBox="0 0 38.889 57.408"
	 style="enable-background:new 0 0 38.889 57.408;" xml:space="preserve">
<style type="text/css">
	.st0{fill:#231F20;}
</style>
<defs>
</defs>
<g>
	<path class="st0" d="M19.444,0C8.723,0,0,8.724,0,19.445c0,6.726,3.535,13.016,9.26,16.546v11.231
		c0,5.616,4.568,10.186,10.185,10.186c5.616,0,10.185-4.569,10.185-10.186V35.991c5.725-3.53,9.26-9.82,9.26-16.546
		C38.889,8.724,30.166,0,19.444,0z M19.444,55.557c-4.595,0-8.333-3.738-8.333-8.334v-3.605h16.666v3.605
		C27.777,51.818,24.039,55.557,19.444,55.557z M28.24,34.665l-0.463,0.268v6.833H11.111v-6.833l-0.463-0.268
		c-5.426-3.144-8.797-8.975-8.797-15.22c0-9.701,7.893-17.593,17.593-17.593s17.593,7.892,17.593,17.593
		C37.037,25.69,33.666,31.521,28.24,34.665z"/>
	<path class="st0" d="M19.444,9.26c-5.616,0-10.185,4.569-10.185,10.186h1.852c0-4.596,3.738-8.334,8.333-8.334
		s8.333,3.738,8.333,8.334h1.852C29.629,13.829,25.06,9.26,19.444,9.26z"/>
</g>
</svg>